<svg width="41" height="41" viewBox="0 0 41 41" fill="none" xmlns="http://www.w3.org/2000/svg">
<g clip-path="url(#clip0_167_538)">
<path d="M35.0279 0.755859H6.66812C3.42826 0.755859 0.79248 3.38434 0.79248 6.61523V34.8965C0.79248 38.1274 3.42826 40.7559 6.66812 40.7559H35.0279C38.2677 40.7559 40.9035 38.1274 40.9035 34.8965V6.61523C40.9035 3.38434 38.2677 0.755859 35.0279 0.755859ZM38.5533 34.8965C38.5533 36.835 36.9717 38.4121 35.0279 38.4121H6.66812C4.72426 38.4121 3.14274 36.835 3.14274 34.8965V6.61523C3.14274 4.67676 4.72426 3.09961 6.66812 3.09961H35.0279C36.9717 3.09961 38.5533 4.67676 38.5533 6.61523V34.8965Z" fill="#070707" stroke="#070707" stroke-width="0.5"/>
<path d="M19.6727 17.2402C19.6727 14.6554 17.5642 12.5527 14.9722 12.5527H7.92139V28.959H14.9722C17.5642 28.959 19.6727 26.8563 19.6727 24.2715C19.6727 22.8726 19.0542 21.6155 18.0761 20.7559C19.0542 19.8962 19.6727 18.6392 19.6727 17.2402ZM17.3224 24.2715C17.3224 25.5639 16.2682 26.6152 14.9722 26.6152H10.2716V21.9277H14.9722C16.2682 21.9277 17.3224 22.9791 17.3224 24.2715ZM10.2716 19.584V14.8965H14.9722C16.2682 14.8965 17.3224 15.9478 17.3224 17.2402C17.3224 18.5327 16.2682 19.584 14.9722 19.584H10.2716Z" fill="#070707" stroke="#070707" stroke-width="0.5"/>
<path d="M27.8986 17.2402C24.6587 17.2402 22.0229 19.8687 22.0229 23.0996C22.0229 26.3305 24.6587 28.959 27.8986 28.959C29.9896 28.959 31.9396 27.8369 32.9874 26.0302L30.953 24.8565C30.3238 25.9414 29.1533 26.6152 27.8986 26.6152C26.3663 26.6152 25.0596 25.6356 24.5746 24.2715H33.7742V23.0996C33.7742 19.8687 31.1385 17.2402 27.8986 17.2402ZM24.5746 21.9277C25.0596 20.5636 26.3663 19.584 27.8986 19.584C29.4308 19.584 30.7376 20.5636 31.2226 21.9277H24.5746Z" fill="#070707" stroke="#070707" stroke-width="0.5"/>
<path d="M23.1982 12.5527H32.5993V14.8965H23.1982V12.5527Z" fill="#070707" stroke="#070707" stroke-width="0.5"/>
</g>
<defs>
<clipPath id="clip0_167_538">
<rect width="40.111" height="40" fill="white" transform="translate(0.79248 0.755859)"/>
</clipPath>
</defs>
</svg>
