<svg width="40" height="41" viewBox="0 0 40 41" fill="none" xmlns="http://www.w3.org/2000/svg">
<path d="M11.8745 1.04867H12.3745V1.03906H28.2793C34.2439 1.03906 39.1263 6.02375 39.1263 12.1511V28.9251C39.1263 35.0527 34.2436 40.0371 28.2887 40.0371H11.8745C5.9086 40.0371 1.01807 35.0607 1.01807 28.9443V12.1607C1.01807 6.03391 5.9094 1.04867 11.8745 1.04867ZM3.02639 12.1693V12.1703V28.9539C3.02639 33.94 6.95395 37.9707 11.8745 37.9707H28.2887C33.1919 37.9707 37.118 33.9386 37.118 28.9347V12.1607C37.118 7.15646 33.1915 3.12471 28.2793 3.12471H11.8745C6.96174 3.12471 3.03632 7.15679 3.02639 12.1693ZM31.1107 8.23876C31.1107 7.64883 31.5648 7.20074 32.1149 7.20074C32.665 7.20074 33.1191 7.64883 33.1191 8.23876C33.1191 8.82869 32.665 9.27678 32.1149 9.27678C31.5648 9.27678 31.1107 8.82869 31.1107 8.23876ZM10.0525 20.5429C10.0525 14.8871 14.5771 10.2768 20.0816 10.2768C25.5861 10.2768 30.1107 14.8871 30.1107 20.5429C30.1107 26.1987 25.5861 30.809 20.0816 30.809C14.5771 30.809 10.0525 26.1987 10.0525 20.5429ZM28.1024 20.5429C28.1024 16.0093 24.5422 12.3528 20.0816 12.3528C15.621 12.3528 12.0608 16.0093 12.0608 20.5429C12.0608 25.0765 15.621 28.733 20.0816 28.733C24.5422 28.733 28.1024 25.0765 28.1024 20.5429Z" fill="#070707" stroke="#070707"/>
</svg>
