<svg width="40" height="41" viewBox="0 0 40 41" fill="none" xmlns="http://www.w3.org/2000/svg">
<path d="M30.3716 7.65775L30.6773 7.27351L30.2987 6.96087C27.3833 4.55373 23.6806 3.11584 19.6298 3.11584C18.2106 3.11584 16.8347 3.31465 15.5319 3.64036L14.8048 3.82215L15.2519 4.42371C16.6425 6.29458 18.6402 9.12014 21.0326 13.5455L21.2392 13.9276L21.6465 13.7764C26.1738 12.0953 28.8867 9.5239 30.3716 7.65775ZM13.0713 4.89998L12.8263 4.57719L12.4597 4.75008C7.96361 6.87091 4.55724 10.9218 3.21258 15.8687L3.04651 16.4797L3.67935 16.4996C6.15525 16.5775 12.0735 16.4608 18.6311 14.7041L19.2496 14.5384L18.9389 13.9785C16.3955 9.3948 14.2565 6.46126 13.0713 4.89998ZM32.5251 9.15896L32.1374 8.69832L31.7558 9.16405C30.0998 11.1853 27.2245 13.8106 22.6722 15.5919L22.1659 15.79L22.4056 16.278C23.3871 18.2761 24.3393 20.4054 25.2069 22.7049L25.3498 23.0838L25.7501 23.0227C29.0434 22.5198 32.0876 22.5198 34.387 22.6999C34.9461 22.7463 35.3068 22.7984 35.7267 22.859C35.8152 22.8718 35.9063 22.8849 36.0024 22.8985L36.5144 22.9707L36.5694 22.4566C36.6368 21.8259 36.6756 21.1927 36.6756 20.5381C36.6756 16.1845 35.0982 12.2161 32.5251 9.15896ZM20.3781 16.7863L20.193 16.4151L19.794 16.5285C12.0807 18.7198 5.28604 18.6528 3.16999 18.5674L2.68815 18.548L2.65128 19.0288L2.6487 19.0624C2.61214 19.5389 2.57461 20.028 2.57461 20.5477C2.57461 25.7814 4.83898 30.4535 8.40992 33.6504L8.78272 33.9841L9.11619 33.6111C10.0113 32.6098 11.2119 31.3345 12.6715 30.0032L12.6735 30.0014C15.4198 27.4697 18.9532 24.791 22.8022 23.6222L23.3191 23.4652L23.1227 22.962C22.2612 20.7542 21.3336 18.702 20.3781 16.7863ZM29.8676 24.6824L29.8622 24.6827C28.8511 24.7315 27.7748 24.8289 26.6803 24.9749L26.0855 25.0543L26.2708 25.625C27.1946 28.4688 27.9587 31.4814 28.4523 34.6152L28.5766 35.4041L29.2319 34.9477C32.418 32.7291 34.828 29.4321 35.9507 25.5618L36.116 24.9922L35.5266 24.9256C34.0666 24.7608 32.2153 24.5946 29.8676 24.6824ZM24.2116 25.8678L24.058 25.4144L23.5984 25.5481C20.217 26.5319 16.6801 29.0831 13.9997 31.5434C12.7045 32.7221 11.6585 33.8409 10.819 34.7573L10.4063 35.2079L10.9296 35.5233C13.4751 37.0577 16.431 37.9603 19.6204 37.9603C22.0141 37.9603 24.2718 37.4546 26.3337 36.5636L26.6817 36.4132L26.6308 36.0375C26.1465 32.4637 25.2923 29.0575 24.2116 25.8678ZM0.575684 20.5381C0.575684 9.78487 9.14293 1.03906 19.6298 1.03906C30.1167 1.03906 38.6839 9.78487 38.6839 20.5381C38.6839 31.2913 30.1167 40.0371 19.6298 40.0371C9.14293 40.0371 0.575684 31.2913 0.575684 20.5381Z" fill="#070707" stroke="#070707"/>
</svg>
